# File created by Blade
# Date/Time:  Tue Apr 07 21:33:03 2015
# Frame Rate: 120.000 fps
#------------------------------------------------------
:FULLY-SPECIFIED
:DEGREES
1223
root -1.533525 32.924851 -4.752433 13.397438 -0.758206 -2.797931
Spine -14.581763 -5.951386 2.940319
Head 7.158978 -1.535956 0.271121
LeftShoulder -21.197598 45.182775 4.016326
LeftArm 55.800741 -9.206829 -80.850167
LeftForeArm -4.470392 -0.000000 2.762381
LeftHand 3.745286 -0.000000 -5.924932
LeftHandThumb1 -26.253704 0.000000 33.147579
RightShoulder -5.164447 -5.385607 -18.896194
RightArm 14.658019 -4.549222 77.434767
RightForeArm -2.664394 -0.000000 5.590245
RightHand 5.522842 -0.000000 4.392614
RightHandThumb1 -24.326973 -0.000000 -32.862282
LeftUpLeg -5.324209 -5.630481 2.832458
LeftLeg -4.985696 -0.000000 0.000000
LeftFoot -7.610524 12.856135 -19.938892
LeftToeBase -4.749246 -0.000000 0.000000
RightUpLeg -7.156555 0.234901 4.331290
RightLeg -3.157805 -0.000000 0.000000
RightFoot -5.022956 -11.545368 6.107087
RightToeBase -1.319650 -0.000000 0.000000
1224
root -1.538272 32.924160 -4.758968 13.453689 -0.759397 -2.859382
Spine -14.600918 -5.944699 2.950728
Head 6.983858 -1.579222 0.412584
LeftShoulder -21.122588 45.116666 3.934115
LeftArm 55.399597 -8.155867 -81.269612
LeftForeArm -4.898012 -0.000000 2.986222
LeftHand 3.669976 0.000000 -6.084770
LeftHandThumb1 -26.253704 0.000000 33.147579
RightShoulder -5.152407 -5.582349 -18.680292
RightArm 14.611178 -5.126540 78.193675
RightForeArm -2.461126 -0.000000 5.885984
RightHand 5.570602 -0.000000 4.097641
RightHandThumb1 -24.326973 -0.000000 -32.862282
LeftUpLeg -5.461593 -5.405579 2.885950
LeftLeg -4.829377 -0.000000 0.000000
LeftFoot -7.648127 12.595481 -19.955503
LeftToeBase -4.853417 -0.000000 0.000000
RightUpLeg -7.216925 0.316596 4.384904
RightLeg -3.169287 -0.000000 0.000000
RightFoot -4.996481 -11.588628 6.120317
RightToeBase -1.311008 -0.000000 0.000000
1225
root -1.534911 32.922729 -4.753022 13.427457 -0.795425 -2.865503
Spine -14.565072 -5.918596 2.911211
Head 6.854244 -1.653434 0.522672
LeftShoulder -21.080035 45.129243 3.793775
LeftArm 55.058772 -7.087239 -81.623033
LeftForeArm -5.285206 -0.000000 3.237433
LeftHand 3.497636 -0.000000 -6.247087
LeftHandThumb1 -26.253704 0.000000 33.147579
RightShoulder -5.153114 -5.753771 -18.483185
RightArm 14.503752 -5.726801 78.944110
RightForeArm -2.221548 -0.000000 6.227134
RightHand 5.417192 -0.000000 4.365102
RightHandThumb1 -24.326973 -0.000000 -32.862282
LeftUpLeg -5.404000 -5.353147 2.869360
LeftLeg -4.860884 -0.000000 0.000000
LeftFoot -7.643795 12.588626 -19.931866
LeftToeBase -4.835579 -0.000000 0.000000
RightUpLeg -7.154249 0.348090 4.368837
RightLeg -3.222883 -0.000000 0.000000
RightFoot -4.985165 -11.558928 6.174568
RightToeBase -1.302250 -0.000000 0.000000
1226
root -1.537203 32.921776 -4.752037 13.442633 -0.800023 -2.904552
Spine -14.563094 -5.906440 2.895493
Head 6.703340 -1.697556 0.655502
LeftShoulder -20.963783 45.121399 3.751730
LeftArm 54.686718 -6.025813 -81.995961
LeftForeArm -5.676064 -0.000000 3.499682
LeftHand 3.407304 -0.000000 -6.531461
LeftHandThumb1 -26.253704 0.000000 33.147579
RightShoulder -5.166892 -5.929511 -18.257042
RightArm 14.401629 -6.330148 79.651310
RightForeArm -2.081300 -0.000000 6.554839
RightHand 5.358963 -0.000000 4.575371
RightHandThumb1 -24.326973 -0.000000 -32.862282
LeftUpLeg -5.443981 -5.202404 2.897950
LeftLeg -4.796840 -0.000000 0.000000
LeftFoot -7.646690 12.413709 -19.902108
LeftToeBase -4.853863 -0.000000 0.000000
RightUpLeg -7.148866 0.381429 4.401820
RightLeg -3.262545 -0.000000 0.000000
RightFoot -4.945294 -11.560919 6.174968
RightToeBase -1.355775 -0.000000 0.000000
1227
root -1.541292 32.920636 -4.750522 13.462176 -0.803501 -2.944606
Spine -14.567519 -5.892315 2.880792
Head 6.552661 -1.750610 0.767643
LeftShoulder -20.811623 45.097872 3.760988
LeftArm 54.156535 -4.565710 -81.808104
LeftForeArm -6.692106 0.000000 3.926980
LeftHand 3.387552 -0.000000 -6.678888
LeftHandThumb1 -26.253704 0.000000 33.147579
RightShoulder -5.200054 -6.075046 -18.029969
RightArm 14.286293 -7.038939 80.324341
RightForeArm -1.806871 -0.000000 6.876339
RightHand 5.348635 -0.000000 4.667789
RightHandThumb1 -24.326973 -0.000000 -32.862282
LeftUpLeg -5.507107 -4.970108 2.924924
LeftLeg -4.691357 -0.000000 0.000000
LeftFoot -7.673738 12.168168 -19.937855
LeftToeBase -4.840402 -0.000000 0.000000
RightUpLeg -7.149442 0.415070 4.439563
RightLeg -3.291443 -0.000000 0.000000
RightFoot -4.939739 -11.555973 6.212434
RightToeBase -1.316929 -0.000000 0.000000
